<mxfile host="app.diagrams.net" agent="Mozilla/5.0 (Windows NT 10.0; Win64; x64) AppleWebKit/537.36 (KHTML, like Gecko) Chrome/136.0.0.0 Safari/537.36" version="27.0.9" pages="2">
  <diagram name="Nivel 0" id="aczHuY5u1-I6r8wNnccB">
    <mxGraphModel grid="1" page="1" gridSize="10" guides="1" tooltips="1" connect="1" arrows="1" fold="1" pageScale="1" pageWidth="827" pageHeight="1169" math="0" shadow="0">
      <root>
        <mxCell id="0" />
        <mxCell id="1" parent="0" />
        <mxCell id="4BAkjUlMA6Nwl7Ngq4Zv-7" style="rounded=0;orthogonalLoop=1;jettySize=auto;html=1;entryX=1;entryY=0.5;entryDx=0;entryDy=0;" edge="1" parent="1" source="4BAkjUlMA6Nwl7Ngq4Zv-3" target="4BAkjUlMA6Nwl7Ngq4Zv-4">
          <mxGeometry relative="1" as="geometry" />
        </mxCell>
        <mxCell id="4BAkjUlMA6Nwl7Ngq4Zv-17" value="recompensas" style="edgeLabel;html=1;align=center;verticalAlign=middle;resizable=0;points=[];" connectable="0" vertex="1" parent="4BAkjUlMA6Nwl7Ngq4Zv-7">
          <mxGeometry x="-0.1289" y="-2" relative="1" as="geometry">
            <mxPoint as="offset" />
          </mxGeometry>
        </mxCell>
        <mxCell id="4BAkjUlMA6Nwl7Ngq4Zv-19" style="rounded=0;orthogonalLoop=1;jettySize=auto;html=1;exitX=0;exitY=1;exitDx=0;exitDy=0;entryX=0.094;entryY=-0.011;entryDx=0;entryDy=0;entryPerimeter=0;" edge="1" parent="1" source="4BAkjUlMA6Nwl7Ngq4Zv-3" target="4BAkjUlMA6Nwl7Ngq4Zv-18">
          <mxGeometry relative="1" as="geometry" />
        </mxCell>
        <mxCell id="4BAkjUlMA6Nwl7Ngq4Zv-20" value="tareas" style="edgeLabel;html=1;align=center;verticalAlign=middle;resizable=0;points=[];" connectable="0" vertex="1" parent="4BAkjUlMA6Nwl7Ngq4Zv-19">
          <mxGeometry x="0.0122" relative="1" as="geometry">
            <mxPoint y="26" as="offset" />
          </mxGeometry>
        </mxCell>
        <mxCell id="4BAkjUlMA6Nwl7Ngq4Zv-25" style="rounded=0;orthogonalLoop=1;jettySize=auto;html=1;exitX=0.992;exitY=0.593;exitDx=0;exitDy=0;entryX=0;entryY=0.75;entryDx=0;entryDy=0;exitPerimeter=0;" edge="1" parent="1" source="4BAkjUlMA6Nwl7Ngq4Zv-3" target="4BAkjUlMA6Nwl7Ngq4Zv-23">
          <mxGeometry relative="1" as="geometry" />
        </mxCell>
        <mxCell id="4BAkjUlMA6Nwl7Ngq4Zv-26" value="petición de recompensa" style="edgeLabel;html=1;align=center;verticalAlign=middle;resizable=0;points=[];" connectable="0" vertex="1" parent="4BAkjUlMA6Nwl7Ngq4Zv-25">
          <mxGeometry x="-0.1765" relative="1" as="geometry">
            <mxPoint x="12" as="offset" />
          </mxGeometry>
        </mxCell>
        <mxCell id="4BAkjUlMA6Nwl7Ngq4Zv-35" style="rounded=0;orthogonalLoop=1;jettySize=auto;html=1;edgeStyle=orthogonalEdgeStyle;" edge="1" parent="1" source="4BAkjUlMA6Nwl7Ngq4Zv-3" target="4BAkjUlMA6Nwl7Ngq4Zv-34">
          <mxGeometry relative="1" as="geometry">
            <Array as="points">
              <mxPoint x="380" y="280" />
              <mxPoint x="380" y="280" />
            </Array>
          </mxGeometry>
        </mxCell>
        <mxCell id="4BAkjUlMA6Nwl7Ngq4Zv-36" value="sesion de&lt;div&gt;usuario&lt;/div&gt;" style="edgeLabel;html=1;align=center;verticalAlign=middle;resizable=0;points=[];" connectable="0" vertex="1" parent="4BAkjUlMA6Nwl7Ngq4Zv-35">
          <mxGeometry x="0.1457" y="3" relative="1" as="geometry">
            <mxPoint x="3" y="21" as="offset" />
          </mxGeometry>
        </mxCell>
        <mxCell id="80QkjugZC8GEYxrpgNlj-1" style="edgeStyle=orthogonalEdgeStyle;rounded=0;orthogonalLoop=1;jettySize=auto;html=1;exitX=1;exitY=1;exitDx=0;exitDy=0;" edge="1" parent="1" source="4BAkjUlMA6Nwl7Ngq4Zv-3" target="4BAkjUlMA6Nwl7Ngq4Zv-18">
          <mxGeometry relative="1" as="geometry">
            <Array as="points">
              <mxPoint x="464" y="520" />
              <mxPoint x="464" y="520" />
            </Array>
          </mxGeometry>
        </mxCell>
        <mxCell id="4BAkjUlMA6Nwl7Ngq4Zv-3" value="&lt;font style=&quot;font-size: 17px;&quot;&gt;Sistema de gestión de tareas con gamificación&lt;/font&gt;" style="ellipse;whiteSpace=wrap;html=1;aspect=fixed;" vertex="1" parent="1">
          <mxGeometry x="344" y="285" width="140" height="140" as="geometry" />
        </mxCell>
        <mxCell id="4BAkjUlMA6Nwl7Ngq4Zv-4" value="Usuario" style="rounded=0;whiteSpace=wrap;html=1;" vertex="1" parent="1">
          <mxGeometry x="50" y="310" width="80" height="90" as="geometry" />
        </mxCell>
        <mxCell id="4BAkjUlMA6Nwl7Ngq4Zv-10" style="rounded=0;orthogonalLoop=1;jettySize=auto;html=1;entryX=0.071;entryY=0.736;entryDx=0;entryDy=0;entryPerimeter=0;exitX=1.01;exitY=0.882;exitDx=0;exitDy=0;exitPerimeter=0;" edge="1" parent="1" source="4BAkjUlMA6Nwl7Ngq4Zv-4" target="4BAkjUlMA6Nwl7Ngq4Zv-3">
          <mxGeometry relative="1" as="geometry" />
        </mxCell>
        <mxCell id="4BAkjUlMA6Nwl7Ngq4Zv-11" value="tareas" style="edgeLabel;html=1;align=center;verticalAlign=middle;resizable=0;points=[];" connectable="0" vertex="1" parent="4BAkjUlMA6Nwl7Ngq4Zv-10">
          <mxGeometry x="0.4148" y="-1" relative="1" as="geometry">
            <mxPoint x="-66" y="-2" as="offset" />
          </mxGeometry>
        </mxCell>
        <mxCell id="4BAkjUlMA6Nwl7Ngq4Zv-14" style="rounded=0;orthogonalLoop=1;jettySize=auto;html=1;exitX=1;exitY=0.25;exitDx=0;exitDy=0;entryX=0.043;entryY=0.307;entryDx=0;entryDy=0;entryPerimeter=0;" edge="1" parent="1" source="4BAkjUlMA6Nwl7Ngq4Zv-4" target="4BAkjUlMA6Nwl7Ngq4Zv-3">
          <mxGeometry relative="1" as="geometry">
            <mxPoint x="340" y="340" as="targetPoint" />
          </mxGeometry>
        </mxCell>
        <mxCell id="4BAkjUlMA6Nwl7Ngq4Zv-16" value="datos: nombre, apellido, email,&lt;div&gt;fecha nacimiento, sexo, ocupación&lt;/div&gt;" style="edgeLabel;html=1;align=center;verticalAlign=middle;resizable=0;points=[];" connectable="0" vertex="1" parent="4BAkjUlMA6Nwl7Ngq4Zv-14">
          <mxGeometry x="-0.2063" y="-1" relative="1" as="geometry">
            <mxPoint x="25" y="-6" as="offset" />
          </mxGeometry>
        </mxCell>
        <mxCell id="80QkjugZC8GEYxrpgNlj-3" style="edgeStyle=orthogonalEdgeStyle;rounded=0;orthogonalLoop=1;jettySize=auto;html=1;exitX=0.75;exitY=0;exitDx=0;exitDy=0;" edge="1" parent="1" source="4BAkjUlMA6Nwl7Ngq4Zv-18" target="4BAkjUlMA6Nwl7Ngq4Zv-3">
          <mxGeometry relative="1" as="geometry">
            <Array as="points">
              <mxPoint x="444" y="450" />
              <mxPoint x="444" y="450" />
            </Array>
          </mxGeometry>
        </mxCell>
        <mxCell id="4BAkjUlMA6Nwl7Ngq4Zv-18" value="Calendario Externo" style="rounded=0;whiteSpace=wrap;html=1;" vertex="1" parent="1">
          <mxGeometry x="354" y="530" width="120" height="60" as="geometry" />
        </mxCell>
        <mxCell id="4BAkjUlMA6Nwl7Ngq4Zv-21" style="edgeStyle=orthogonalEdgeStyle;rounded=0;orthogonalLoop=1;jettySize=auto;html=1;entryX=0.331;entryY=0.971;entryDx=0;entryDy=0;entryPerimeter=0;" edge="1" parent="1" target="4BAkjUlMA6Nwl7Ngq4Zv-3">
          <mxGeometry relative="1" as="geometry">
            <mxPoint x="390" y="530" as="sourcePoint" />
            <Array as="points">
              <mxPoint x="390" y="530" />
              <mxPoint x="390" y="478" />
            </Array>
          </mxGeometry>
        </mxCell>
        <mxCell id="4BAkjUlMA6Nwl7Ngq4Zv-22" value="feedback de&lt;div&gt;cumplimiento&lt;/div&gt;" style="edgeLabel;html=1;align=center;verticalAlign=middle;resizable=0;points=[];" connectable="0" vertex="1" parent="4BAkjUlMA6Nwl7Ngq4Zv-21">
          <mxGeometry x="0.1094" relative="1" as="geometry">
            <mxPoint y="-12" as="offset" />
          </mxGeometry>
        </mxCell>
        <mxCell id="4BAkjUlMA6Nwl7Ngq4Zv-23" value="&lt;font&gt;Sistema de Recompensas Externas&lt;/font&gt;&lt;div&gt;&lt;font&gt;(API de Gift Cards)&lt;/font&gt;&lt;/div&gt;" style="rounded=0;whiteSpace=wrap;html=1;" vertex="1" parent="1">
          <mxGeometry x="640" y="325" width="120" height="60" as="geometry" />
        </mxCell>
        <mxCell id="4BAkjUlMA6Nwl7Ngq4Zv-24" style="rounded=0;orthogonalLoop=1;jettySize=auto;html=1;entryX=0.962;entryY=0.359;entryDx=0;entryDy=0;entryPerimeter=0;exitX=0;exitY=0.25;exitDx=0;exitDy=0;" edge="1" parent="1" source="4BAkjUlMA6Nwl7Ngq4Zv-23" target="4BAkjUlMA6Nwl7Ngq4Zv-3">
          <mxGeometry relative="1" as="geometry" />
        </mxCell>
        <mxCell id="4BAkjUlMA6Nwl7Ngq4Zv-27" value="key de recompensa" style="edgeLabel;html=1;align=center;verticalAlign=middle;resizable=0;points=[];" connectable="0" vertex="1" parent="4BAkjUlMA6Nwl7Ngq4Zv-24">
          <mxGeometry x="-0.2946" y="-1" relative="1" as="geometry">
            <mxPoint x="-25" as="offset" />
          </mxGeometry>
        </mxCell>
        <mxCell id="4BAkjUlMA6Nwl7Ngq4Zv-34" value="Servicios de Autenticación" style="rounded=0;whiteSpace=wrap;html=1;" vertex="1" parent="1">
          <mxGeometry x="354" y="120" width="120" height="60" as="geometry" />
        </mxCell>
        <mxCell id="4BAkjUlMA6Nwl7Ngq4Zv-37" style="rounded=0;orthogonalLoop=1;jettySize=auto;html=1;exitX=0.75;exitY=1;exitDx=0;exitDy=0;edgeStyle=orthogonalEdgeStyle;" edge="1" parent="1" source="4BAkjUlMA6Nwl7Ngq4Zv-34" target="4BAkjUlMA6Nwl7Ngq4Zv-3">
          <mxGeometry relative="1" as="geometry">
            <Array as="points">
              <mxPoint x="444" y="280" />
              <mxPoint x="444" y="280" />
            </Array>
            <mxPoint x="460" y="260" as="targetPoint" />
          </mxGeometry>
        </mxCell>
        <mxCell id="4BAkjUlMA6Nwl7Ngq4Zv-38" value="autenticación&lt;div&gt;de la cuenta&lt;/div&gt;" style="edgeLabel;html=1;align=center;verticalAlign=middle;resizable=0;points=[];" connectable="0" vertex="1" parent="4BAkjUlMA6Nwl7Ngq4Zv-37">
          <mxGeometry x="-0.2087" y="-1" relative="1" as="geometry">
            <mxPoint x="1" y="-14" as="offset" />
          </mxGeometry>
        </mxCell>
        <mxCell id="80QkjugZC8GEYxrpgNlj-2" value="sync" style="edgeLabel;html=1;align=center;verticalAlign=middle;resizable=0;points=[];" connectable="0" vertex="1" parent="1">
          <mxGeometry x="462.9989685396945" y="439.99634747349376" as="geometry" />
        </mxCell>
        <mxCell id="80QkjugZC8GEYxrpgNlj-5" value="sync" style="edgeLabel;html=1;align=center;verticalAlign=middle;resizable=0;points=[];" connectable="0" vertex="1" parent="1">
          <mxGeometry x="443.9989685396945" y="479.99634747349376" as="geometry" />
        </mxCell>
      </root>
    </mxGraphModel>
  </diagram>
  <diagram name="nivel 1" id="hm4UKP0Rl69SnvJGqxtc">
    <mxGraphModel grid="1" page="1" gridSize="10" guides="1" tooltips="1" connect="1" arrows="1" fold="1" pageScale="1" pageWidth="827" pageHeight="1169" math="0" shadow="0">
      <root>
        <mxCell id="5PwMdv7MGkjJYyUV1_AV-0" />
        <mxCell id="5PwMdv7MGkjJYyUV1_AV-1" parent="5PwMdv7MGkjJYyUV1_AV-0" />
        <mxCell id="5PwMdv7MGkjJYyUV1_AV-2" value="" style="ellipse;whiteSpace=wrap;html=1;aspect=fixed;dashed=1;dashPattern=8 8;fillColor=none;" parent="5PwMdv7MGkjJYyUV1_AV-1" vertex="1">
          <mxGeometry x="100.75" y="199.25" width="636.5" height="636.5" as="geometry" />
        </mxCell>
        <mxCell id="5PwMdv7MGkjJYyUV1_AV-3" style="rounded=0;orthogonalLoop=1;jettySize=auto;html=1;edgeStyle=orthogonalEdgeStyle;curved=1;exitX=0;exitY=1;exitDx=0;exitDy=0;" parent="5PwMdv7MGkjJYyUV1_AV-1" source="5PwMdv7MGkjJYyUV1_AV-47" target="5PwMdv7MGkjJYyUV1_AV-12" edge="1">
          <mxGeometry relative="1" as="geometry">
            <mxPoint x="464" y="575" as="sourcePoint" />
            <mxPoint x="34" y="510" as="targetPoint" />
            <Array as="points">
              <mxPoint x="584" y="650" />
              <mxPoint x="370" y="650" />
              <mxPoint x="370" y="710" />
              <mxPoint x="-90" y="710" />
            </Array>
          </mxGeometry>
        </mxCell>
        <mxCell id="8203JDkQFIH94tRZnooB-0" value="recompensas" style="edgeLabel;html=1;align=center;verticalAlign=middle;resizable=0;points=[];" parent="5PwMdv7MGkjJYyUV1_AV-3" connectable="0" vertex="1">
          <mxGeometry x="0.0936" y="-3" relative="1" as="geometry">
            <mxPoint as="offset" />
          </mxGeometry>
        </mxCell>
        <mxCell id="5PwMdv7MGkjJYyUV1_AV-5" style="rounded=0;orthogonalLoop=1;jettySize=auto;html=1;entryX=0.094;entryY=-0.011;entryDx=0;entryDy=0;entryPerimeter=0;exitX=0.038;exitY=0.612;exitDx=0;exitDy=0;exitPerimeter=0;edgeStyle=orthogonalEdgeStyle;curved=1;" parent="5PwMdv7MGkjJYyUV1_AV-1" source="5PwMdv7MGkjJYyUV1_AV-46" target="5PwMdv7MGkjJYyUV1_AV-18" edge="1">
          <mxGeometry relative="1" as="geometry">
            <mxPoint x="390" y="670" as="sourcePoint" />
            <Array as="points">
              <mxPoint x="360" y="738" />
              <mxPoint x="360" y="818" />
              <mxPoint x="376" y="818" />
            </Array>
          </mxGeometry>
        </mxCell>
        <mxCell id="5PwMdv7MGkjJYyUV1_AV-6" value="tareas" style="edgeLabel;html=1;align=center;verticalAlign=middle;resizable=0;points=[];" parent="5PwMdv7MGkjJYyUV1_AV-5" connectable="0" vertex="1">
          <mxGeometry x="0.0122" relative="1" as="geometry">
            <mxPoint y="4" as="offset" />
          </mxGeometry>
        </mxCell>
        <mxCell id="5PwMdv7MGkjJYyUV1_AV-7" style="rounded=0;orthogonalLoop=1;jettySize=auto;html=1;exitX=0.958;exitY=0.733;exitDx=0;exitDy=0;entryX=0;entryY=0.75;entryDx=0;entryDy=0;exitPerimeter=0;edgeStyle=orthogonalEdgeStyle;curved=1;" parent="5PwMdv7MGkjJYyUV1_AV-1" source="5PwMdv7MGkjJYyUV1_AV-47" target="5PwMdv7MGkjJYyUV1_AV-21" edge="1">
          <mxGeometry relative="1" as="geometry">
            <Array as="points">
              <mxPoint x="590" y="680" />
              <mxPoint x="860" y="680" />
              <mxPoint x="860" y="665" />
            </Array>
          </mxGeometry>
        </mxCell>
        <mxCell id="5PwMdv7MGkjJYyUV1_AV-8" value="petición de recompensa" style="edgeLabel;html=1;align=center;verticalAlign=middle;resizable=0;points=[];horizontal=1;" parent="5PwMdv7MGkjJYyUV1_AV-7" vertex="1" connectable="0">
          <mxGeometry x="0.1755" y="1" relative="1" as="geometry">
            <mxPoint as="offset" />
          </mxGeometry>
        </mxCell>
        <mxCell id="5PwMdv7MGkjJYyUV1_AV-11" style="rounded=0;orthogonalLoop=1;jettySize=auto;html=1;exitX=0.952;exitY=0.602;exitDx=0;exitDy=0;exitPerimeter=0;edgeStyle=orthogonalEdgeStyle;curved=1;entryX=1;entryY=0;entryDx=0;entryDy=0;" parent="5PwMdv7MGkjJYyUV1_AV-1" source="5PwMdv7MGkjJYyUV1_AV-46" target="5PwMdv7MGkjJYyUV1_AV-18" edge="1">
          <mxGeometry relative="1" as="geometry">
            <mxPoint x="460" y="670" as="sourcePoint" />
            <mxPoint x="470" y="850" as="targetPoint" />
            <Array as="points">
              <mxPoint x="485" y="738" />
            </Array>
          </mxGeometry>
        </mxCell>
        <mxCell id="8203JDkQFIH94tRZnooB-9" value="sync" style="edgeLabel;html=1;align=center;verticalAlign=middle;resizable=0;points=[];" parent="5PwMdv7MGkjJYyUV1_AV-11" connectable="0" vertex="1">
          <mxGeometry x="0.0232" y="2" relative="1" as="geometry">
            <mxPoint y="20" as="offset" />
          </mxGeometry>
        </mxCell>
        <mxCell id="5PwMdv7MGkjJYyUV1_AV-12" value="Usuario" style="rounded=0;whiteSpace=wrap;html=1;" parent="5PwMdv7MGkjJYyUV1_AV-1" vertex="1">
          <mxGeometry x="-130" y="415" width="80" height="90" as="geometry" />
        </mxCell>
        <mxCell id="5PwMdv7MGkjJYyUV1_AV-13" style="rounded=0;orthogonalLoop=1;jettySize=auto;html=1;exitX=1.01;exitY=0.882;exitDx=0;exitDy=0;exitPerimeter=0;" parent="5PwMdv7MGkjJYyUV1_AV-1" source="5PwMdv7MGkjJYyUV1_AV-12" target="5PwMdv7MGkjJYyUV1_AV-57" edge="1">
          <mxGeometry relative="1" as="geometry">
            <mxPoint x="254" y="505" as="targetPoint" />
          </mxGeometry>
        </mxCell>
        <mxCell id="8203JDkQFIH94tRZnooB-7" value="tareas" style="edgeLabel;html=1;align=center;verticalAlign=middle;resizable=0;points=[];" parent="5PwMdv7MGkjJYyUV1_AV-13" connectable="0" vertex="1">
          <mxGeometry x="-0.0533" y="-1" relative="1" as="geometry">
            <mxPoint as="offset" />
          </mxGeometry>
        </mxCell>
        <mxCell id="5PwMdv7MGkjJYyUV1_AV-15" style="rounded=0;orthogonalLoop=1;jettySize=auto;html=1;exitX=1.004;exitY=0.067;exitDx=0;exitDy=0;exitPerimeter=0;edgeStyle=orthogonalEdgeStyle;curved=1;" parent="5PwMdv7MGkjJYyUV1_AV-1" source="5PwMdv7MGkjJYyUV1_AV-12" target="5PwMdv7MGkjJYyUV1_AV-65" edge="1">
          <mxGeometry relative="1" as="geometry">
            <Array as="points">
              <mxPoint x="80" y="421" />
              <mxPoint x="80" y="394" />
            </Array>
            <mxPoint x="255.5" y="430" as="targetPoint" />
          </mxGeometry>
        </mxCell>
        <mxCell id="8203JDkQFIH94tRZnooB-2" value="datos: nombre, apellido, email,&lt;div&gt;fecha nacimiento, sexo, ocupación&lt;/div&gt;" style="edgeLabel;html=1;align=center;verticalAlign=middle;resizable=0;points=[];" parent="5PwMdv7MGkjJYyUV1_AV-15" connectable="0" vertex="1">
          <mxGeometry x="-0.1934" y="6" relative="1" as="geometry">
            <mxPoint as="offset" />
          </mxGeometry>
        </mxCell>
        <mxCell id="8203JDkQFIH94tRZnooB-13" style="edgeStyle=orthogonalEdgeStyle;rounded=0;orthogonalLoop=1;jettySize=auto;html=1;exitX=0.75;exitY=0;exitDx=0;exitDy=0;entryX=1;entryY=1;entryDx=0;entryDy=0;curved=1;" parent="5PwMdv7MGkjJYyUV1_AV-1" source="5PwMdv7MGkjJYyUV1_AV-18" target="5PwMdv7MGkjJYyUV1_AV-46" edge="1">
          <mxGeometry relative="1" as="geometry" />
        </mxCell>
        <mxCell id="8203JDkQFIH94tRZnooB-14" value="sync" style="edgeLabel;html=1;align=center;verticalAlign=middle;resizable=0;points=[];" parent="8203JDkQFIH94tRZnooB-13" connectable="0" vertex="1">
          <mxGeometry x="0.4888" relative="1" as="geometry">
            <mxPoint as="offset" />
          </mxGeometry>
        </mxCell>
        <mxCell id="5PwMdv7MGkjJYyUV1_AV-18" value="Calendario Externo" style="rounded=0;whiteSpace=wrap;html=1;" parent="5PwMdv7MGkjJYyUV1_AV-1" vertex="1">
          <mxGeometry x="365" y="870" width="120" height="60" as="geometry" />
        </mxCell>
        <mxCell id="5PwMdv7MGkjJYyUV1_AV-19" style="rounded=0;orthogonalLoop=1;jettySize=auto;html=1;exitX=0.5;exitY=0;exitDx=0;exitDy=0;edgeStyle=orthogonalEdgeStyle;curved=1;" parent="5PwMdv7MGkjJYyUV1_AV-1" source="5PwMdv7MGkjJYyUV1_AV-18" target="5PwMdv7MGkjJYyUV1_AV-46" edge="1">
          <mxGeometry relative="1" as="geometry">
            <mxPoint x="435.77" y="789.6" as="sourcePoint" />
            <mxPoint x="407.5" y="670" as="targetPoint" />
            <Array as="points">
              <mxPoint x="425" y="818" />
              <mxPoint x="410" y="818" />
            </Array>
          </mxGeometry>
        </mxCell>
        <mxCell id="5PwMdv7MGkjJYyUV1_AV-20" value="&lt;font size=&quot;1&quot;&gt;feedback&lt;/font&gt;&lt;div&gt;&lt;font size=&quot;1&quot;&gt;de&lt;/font&gt;&lt;/div&gt;&lt;div&gt;&lt;font size=&quot;1&quot;&gt;cumplimiento&lt;/font&gt;&lt;/div&gt;" style="edgeLabel;html=1;align=center;verticalAlign=middle;resizable=0;points=[];" parent="5PwMdv7MGkjJYyUV1_AV-19" connectable="0" vertex="1">
          <mxGeometry x="0.1094" relative="1" as="geometry">
            <mxPoint x="4" y="-7" as="offset" />
          </mxGeometry>
        </mxCell>
        <mxCell id="5PwMdv7MGkjJYyUV1_AV-21" value="&lt;font&gt;Sistema de recompensas externas&lt;/font&gt;&lt;div&gt;&lt;font&gt;(API de Gift Cards)&lt;/font&gt;&lt;/div&gt;" style="rounded=0;whiteSpace=wrap;html=1;" parent="5PwMdv7MGkjJYyUV1_AV-1" vertex="1">
          <mxGeometry x="880" y="620" width="120" height="60" as="geometry" />
        </mxCell>
        <mxCell id="5PwMdv7MGkjJYyUV1_AV-22" style="rounded=0;orthogonalLoop=1;jettySize=auto;html=1;entryX=0.97;entryY=0.334;entryDx=0;entryDy=0;exitX=0;exitY=0.25;exitDx=0;exitDy=0;entryPerimeter=0;edgeStyle=orthogonalEdgeStyle;curved=1;" parent="5PwMdv7MGkjJYyUV1_AV-1" source="5PwMdv7MGkjJYyUV1_AV-21" target="5PwMdv7MGkjJYyUV1_AV-47" edge="1">
          <mxGeometry relative="1" as="geometry">
            <Array as="points">
              <mxPoint x="880" y="620" />
              <mxPoint x="690" y="620" />
              <mxPoint x="690" y="635" />
              <mxPoint x="670" y="635" />
            </Array>
          </mxGeometry>
        </mxCell>
        <mxCell id="5PwMdv7MGkjJYyUV1_AV-23" value="key de recompensa" style="edgeLabel;html=1;align=center;verticalAlign=middle;resizable=0;points=[];" parent="5PwMdv7MGkjJYyUV1_AV-22" connectable="0" vertex="1">
          <mxGeometry x="-0.2973" y="-2" relative="1" as="geometry">
            <mxPoint x="-34" y="2" as="offset" />
          </mxGeometry>
        </mxCell>
        <mxCell id="5PwMdv7MGkjJYyUV1_AV-24" value="Sevicios de Autenticación" style="rounded=0;whiteSpace=wrap;html=1;" parent="5PwMdv7MGkjJYyUV1_AV-1" vertex="1">
          <mxGeometry x="379" y="40" width="120" height="60" as="geometry" />
        </mxCell>
        <mxCell id="5PwMdv7MGkjJYyUV1_AV-25" style="rounded=0;orthogonalLoop=1;jettySize=auto;html=1;entryX=1;entryY=0;entryDx=0;entryDy=0;exitX=1;exitY=1;exitDx=0;exitDy=0;edgeStyle=orthogonalEdgeStyle;curved=1;" parent="5PwMdv7MGkjJYyUV1_AV-1" source="5PwMdv7MGkjJYyUV1_AV-24" target="5PwMdv7MGkjJYyUV1_AV-56" edge="1">
          <mxGeometry relative="1" as="geometry" />
        </mxCell>
        <mxCell id="5PwMdv7MGkjJYyUV1_AV-26" value="autenticación&lt;div&gt;de la cuenta&lt;/div&gt;" style="edgeLabel;html=1;align=center;verticalAlign=middle;resizable=0;points=[];" parent="5PwMdv7MGkjJYyUV1_AV-25" connectable="0" vertex="1">
          <mxGeometry x="-0.2087" y="-1" relative="1" as="geometry">
            <mxPoint x="-13" y="1" as="offset" />
          </mxGeometry>
        </mxCell>
        <mxCell id="5PwMdv7MGkjJYyUV1_AV-28" value="sync" style="edgeLabel;html=1;align=center;verticalAlign=middle;resizable=0;points=[];" parent="5PwMdv7MGkjJYyUV1_AV-1" connectable="0" vertex="1">
          <mxGeometry x="443.9989685396945" y="739.9963474734938" as="geometry" />
        </mxCell>
        <mxCell id="5PwMdv7MGkjJYyUV1_AV-29" style="edgeStyle=orthogonalEdgeStyle;rounded=0;orthogonalLoop=1;jettySize=auto;html=1;" parent="5PwMdv7MGkjJYyUV1_AV-1" source="5PwMdv7MGkjJYyUV1_AV-46" target="5PwMdv7MGkjJYyUV1_AV-49" edge="1">
          <mxGeometry relative="1" as="geometry">
            <Array as="points">
              <mxPoint x="434" y="580" />
              <mxPoint x="434" y="580" />
            </Array>
            <mxPoint x="442.5" y="630" as="sourcePoint" />
            <mxPoint x="434" y="527.5" as="targetPoint" />
          </mxGeometry>
        </mxCell>
        <mxCell id="5PwMdv7MGkjJYyUV1_AV-30" style="edgeStyle=orthogonalEdgeStyle;rounded=0;orthogonalLoop=1;jettySize=auto;html=1;" parent="5PwMdv7MGkjJYyUV1_AV-1" source="5PwMdv7MGkjJYyUV1_AV-49" target="5PwMdv7MGkjJYyUV1_AV-46" edge="1">
          <mxGeometry relative="1" as="geometry">
            <Array as="points">
              <mxPoint x="414" y="580" />
              <mxPoint x="414" y="580" />
            </Array>
            <mxPoint x="414" y="527.5" as="sourcePoint" />
            <mxPoint x="414" y="630" as="targetPoint" />
          </mxGeometry>
        </mxCell>
        <mxCell id="5PwMdv7MGkjJYyUV1_AV-35" style="rounded=0;orthogonalLoop=1;jettySize=auto;html=1;exitX=0;exitY=1;exitDx=0;exitDy=0;edgeStyle=orthogonalEdgeStyle;curved=1;" parent="5PwMdv7MGkjJYyUV1_AV-1" source="5PwMdv7MGkjJYyUV1_AV-49" target="5PwMdv7MGkjJYyUV1_AV-48" edge="1">
          <mxGeometry relative="1" as="geometry">
            <mxPoint x="376" y="527.5" as="sourcePoint" />
          </mxGeometry>
        </mxCell>
        <mxCell id="5PwMdv7MGkjJYyUV1_AV-37" style="edgeStyle=orthogonalEdgeStyle;rounded=0;orthogonalLoop=1;jettySize=auto;html=1;entryX=0;entryY=0;entryDx=0;entryDy=0;curved=1;" parent="5PwMdv7MGkjJYyUV1_AV-1" source="5PwMdv7MGkjJYyUV1_AV-65" target="5PwMdv7MGkjJYyUV1_AV-58" edge="1">
          <mxGeometry relative="1" as="geometry">
            <Array as="points">
              <mxPoint x="260" y="460" />
              <mxPoint x="540" y="460" />
              <mxPoint x="540" y="465" />
            </Array>
            <mxPoint x="322.5" y="450" as="sourcePoint" />
          </mxGeometry>
        </mxCell>
        <mxCell id="8203JDkQFIH94tRZnooB-23" value="intereses" style="edgeLabel;html=1;align=center;verticalAlign=middle;resizable=0;points=[];" parent="5PwMdv7MGkjJYyUV1_AV-37" connectable="0" vertex="1">
          <mxGeometry x="0.4862" y="1" relative="1" as="geometry">
            <mxPoint y="6" as="offset" />
          </mxGeometry>
        </mxCell>
        <mxCell id="5PwMdv7MGkjJYyUV1_AV-40" style="rounded=0;orthogonalLoop=1;jettySize=auto;html=1;exitX=0.919;exitY=0.697;exitDx=0;exitDy=0;exitPerimeter=0;entryX=0;entryY=0.75;entryDx=0;entryDy=0;" parent="5PwMdv7MGkjJYyUV1_AV-1" source="5PwMdv7MGkjJYyUV1_AV-57" target="5PwMdv7MGkjJYyUV1_AV-49" edge="1">
          <mxGeometry relative="1" as="geometry">
            <mxPoint x="376" y="516.25" as="targetPoint" />
            <mxPoint x="324" y="515" as="sourcePoint" />
          </mxGeometry>
        </mxCell>
        <mxCell id="8203JDkQFIH94tRZnooB-32" value="tareas" style="edgeLabel;html=1;align=center;verticalAlign=middle;resizable=0;points=[];" parent="5PwMdv7MGkjJYyUV1_AV-40" connectable="0" vertex="1">
          <mxGeometry x="-0.0909" y="1" relative="1" as="geometry">
            <mxPoint as="offset" />
          </mxGeometry>
        </mxCell>
        <mxCell id="5PwMdv7MGkjJYyUV1_AV-41" style="edgeStyle=orthogonalEdgeStyle;rounded=0;orthogonalLoop=1;jettySize=auto;html=1;exitX=0.5;exitY=1;exitDx=0;exitDy=0;curved=1;" parent="5PwMdv7MGkjJYyUV1_AV-1" source="5PwMdv7MGkjJYyUV1_AV-58" target="5PwMdv7MGkjJYyUV1_AV-47" edge="1">
          <mxGeometry relative="1" as="geometry" />
        </mxCell>
        <mxCell id="5PwMdv7MGkjJYyUV1_AV-42" style="edgeStyle=orthogonalEdgeStyle;rounded=0;orthogonalLoop=1;jettySize=auto;html=1;entryX=1;entryY=0;entryDx=0;entryDy=0;exitX=1;exitY=0.5;exitDx=0;exitDy=0;curved=1;" parent="5PwMdv7MGkjJYyUV1_AV-1" source="5PwMdv7MGkjJYyUV1_AV-67" target="5PwMdv7MGkjJYyUV1_AV-58" edge="1">
          <mxGeometry relative="1" as="geometry">
            <mxPoint x="544" y="410" as="sourcePoint" />
          </mxGeometry>
        </mxCell>
        <mxCell id="5PwMdv7MGkjJYyUV1_AV-43" style="edgeStyle=orthogonalEdgeStyle;rounded=0;orthogonalLoop=1;jettySize=auto;html=1;exitX=1;exitY=0.5;exitDx=0;exitDy=0;curved=1;" parent="5PwMdv7MGkjJYyUV1_AV-1" source="5PwMdv7MGkjJYyUV1_AV-48" target="5PwMdv7MGkjJYyUV1_AV-49" edge="1">
          <mxGeometry relative="1" as="geometry">
            <Array as="points">
              <mxPoint x="390" y="663" />
            </Array>
          </mxGeometry>
        </mxCell>
        <mxCell id="5PwMdv7MGkjJYyUV1_AV-46" value="Calendario" style="ellipse;whiteSpace=wrap;html=1;aspect=fixed;" parent="5PwMdv7MGkjJYyUV1_AV-1" vertex="1">
          <mxGeometry x="389" y="695.5" width="70" height="70" as="geometry" />
        </mxCell>
        <mxCell id="8203JDkQFIH94tRZnooB-34" style="rounded=0;orthogonalLoop=1;jettySize=auto;html=1;exitX=0;exitY=0;exitDx=0;exitDy=0;entryX=1;entryY=1;entryDx=0;entryDy=0;" parent="5PwMdv7MGkjJYyUV1_AV-1" source="5PwMdv7MGkjJYyUV1_AV-47" target="5PwMdv7MGkjJYyUV1_AV-49" edge="1">
          <mxGeometry relative="1" as="geometry" />
        </mxCell>
        <mxCell id="8203JDkQFIH94tRZnooB-35" value="recompensas" style="edgeLabel;html=1;align=center;verticalAlign=middle;resizable=0;points=[];" parent="8203JDkQFIH94tRZnooB-34" connectable="0" vertex="1">
          <mxGeometry x="-0.1194" y="1" relative="1" as="geometry">
            <mxPoint as="offset" />
          </mxGeometry>
        </mxCell>
        <mxCell id="5PwMdv7MGkjJYyUV1_AV-47" value="Recompensas" style="ellipse;whiteSpace=wrap;html=1;aspect=fixed;" parent="5PwMdv7MGkjJYyUV1_AV-1" vertex="1">
          <mxGeometry x="570" y="602.25" width="95.5" height="95.5" as="geometry" />
        </mxCell>
        <mxCell id="8203JDkQFIH94tRZnooB-38" style="edgeStyle=orthogonalEdgeStyle;rounded=0;orthogonalLoop=1;jettySize=auto;html=1;exitX=0;exitY=0.5;exitDx=0;exitDy=0;entryX=0;entryY=1;entryDx=0;entryDy=0;curved=1;" parent="5PwMdv7MGkjJYyUV1_AV-1" source="5PwMdv7MGkjJYyUV1_AV-48" target="5PwMdv7MGkjJYyUV1_AV-65" edge="1">
          <mxGeometry relative="1" as="geometry">
            <Array as="points">
              <mxPoint x="259" y="660" />
              <mxPoint x="179" y="660" />
            </Array>
          </mxGeometry>
        </mxCell>
        <mxCell id="8203JDkQFIH94tRZnooB-39" value="amistades" style="edgeLabel;html=1;align=center;verticalAlign=middle;resizable=0;points=[];" parent="8203JDkQFIH94tRZnooB-38" connectable="0" vertex="1">
          <mxGeometry x="-0.2113" y="-12" relative="1" as="geometry">
            <mxPoint as="offset" />
          </mxGeometry>
        </mxCell>
        <mxCell id="5PwMdv7MGkjJYyUV1_AV-48" value="Red Social" style="ellipse;whiteSpace=wrap;html=1;aspect=fixed;" parent="5PwMdv7MGkjJYyUV1_AV-1" vertex="1">
          <mxGeometry x="259" y="637.75" width="50" height="50" as="geometry" />
        </mxCell>
        <mxCell id="8203JDkQFIH94tRZnooB-30" style="rounded=0;orthogonalLoop=1;jettySize=auto;html=1;exitX=0;exitY=0.25;exitDx=0;exitDy=0;entryX=1;entryY=0;entryDx=0;entryDy=0;" parent="5PwMdv7MGkjJYyUV1_AV-1" source="5PwMdv7MGkjJYyUV1_AV-49" target="5PwMdv7MGkjJYyUV1_AV-57" edge="1">
          <mxGeometry relative="1" as="geometry" />
        </mxCell>
        <mxCell id="8203JDkQFIH94tRZnooB-31" value="tareas" style="edgeLabel;html=1;align=center;verticalAlign=middle;resizable=0;points=[];" parent="8203JDkQFIH94tRZnooB-30" connectable="0" vertex="1">
          <mxGeometry x="-0.0591" y="-2" relative="1" as="geometry">
            <mxPoint as="offset" />
          </mxGeometry>
        </mxCell>
        <mxCell id="5PwMdv7MGkjJYyUV1_AV-49" value="&lt;font style=&quot;font-size: 15px;&quot;&gt;Almacén de&lt;/font&gt;&lt;div&gt;&lt;font style=&quot;font-size: 15px;&quot;&gt;Datos&lt;/font&gt;&lt;/div&gt;" style="shape=partialRectangle;whiteSpace=wrap;html=1;left=0;right=0;fillColor=none;" parent="5PwMdv7MGkjJYyUV1_AV-1" vertex="1">
          <mxGeometry x="353" y="485" width="121" height="65" as="geometry" />
        </mxCell>
        <mxCell id="5PwMdv7MGkjJYyUV1_AV-50" value="fechas" style="edgeLabel;html=1;align=center;verticalAlign=middle;resizable=0;points=[];" parent="5PwMdv7MGkjJYyUV1_AV-1" connectable="0" vertex="1">
          <mxGeometry x="413.9989685396945" y="589.9963474734938" as="geometry" />
        </mxCell>
        <mxCell id="5PwMdv7MGkjJYyUV1_AV-51" value="fechas" style="edgeLabel;html=1;align=center;verticalAlign=middle;resizable=0;points=[];" parent="5PwMdv7MGkjJYyUV1_AV-1" connectable="0" vertex="1">
          <mxGeometry x="433.9989685396945" y="559.9963474734938" as="geometry" />
        </mxCell>
        <mxCell id="5PwMdv7MGkjJYyUV1_AV-54" value="relaciones" style="edgeLabel;html=1;align=center;verticalAlign=top;resizable=0;points=[];rotation=0;" parent="5PwMdv7MGkjJYyUV1_AV-1" connectable="0" vertex="1">
          <mxGeometry x="363.99643311476575" y="619.9984297240785" as="geometry" />
        </mxCell>
        <mxCell id="5PwMdv7MGkjJYyUV1_AV-55" value="relaciones" style="edgeLabel;html=1;align=center;verticalAlign=top;resizable=0;points=[];rotation=0;" parent="5PwMdv7MGkjJYyUV1_AV-1" connectable="0" vertex="1">
          <mxGeometry x="333.99643311476575" y="569.9984297240785" as="geometry" />
        </mxCell>
        <mxCell id="8203JDkQFIH94tRZnooB-20" style="rounded=0;orthogonalLoop=1;jettySize=auto;html=1;exitX=0.5;exitY=1;exitDx=0;exitDy=0;entryX=0.5;entryY=0;entryDx=0;entryDy=0;" parent="5PwMdv7MGkjJYyUV1_AV-1" source="5PwMdv7MGkjJYyUV1_AV-56" target="5PwMdv7MGkjJYyUV1_AV-49" edge="1">
          <mxGeometry relative="1" as="geometry" />
        </mxCell>
        <mxCell id="jvBPAijivOhRB5HaXGN9-0" style="edgeStyle=orthogonalEdgeStyle;rounded=0;orthogonalLoop=1;jettySize=auto;html=1;exitX=0.5;exitY=0;exitDx=0;exitDy=0;entryX=0;entryY=1;entryDx=0;entryDy=0;curved=1;" edge="1" parent="5PwMdv7MGkjJYyUV1_AV-1" source="5PwMdv7MGkjJYyUV1_AV-56" target="5PwMdv7MGkjJYyUV1_AV-24">
          <mxGeometry relative="1" as="geometry" />
        </mxCell>
        <mxCell id="jvBPAijivOhRB5HaXGN9-1" value="sesion de&lt;div&gt;usuario&lt;/div&gt;" style="edgeLabel;html=1;align=center;verticalAlign=middle;resizable=0;points=[];" connectable="0" vertex="1" parent="jvBPAijivOhRB5HaXGN9-0">
          <mxGeometry x="0.3946" y="-8" relative="1" as="geometry">
            <mxPoint as="offset" />
          </mxGeometry>
        </mxCell>
        <mxCell id="5PwMdv7MGkjJYyUV1_AV-56" value="Módulo de Autenticación" style="ellipse;whiteSpace=wrap;html=1;aspect=fixed;" parent="5PwMdv7MGkjJYyUV1_AV-1" vertex="1">
          <mxGeometry x="379" y="220" width="80" height="80" as="geometry" />
        </mxCell>
        <mxCell id="5PwMdv7MGkjJYyUV1_AV-57" value="Gestor de Tareas" style="ellipse;whiteSpace=wrap;html=1;aspect=fixed;" parent="5PwMdv7MGkjJYyUV1_AV-1" vertex="1">
          <mxGeometry x="210" y="492" width="60" height="60" as="geometry" />
        </mxCell>
        <mxCell id="5PwMdv7MGkjJYyUV1_AV-58" value="Clasificador de Perfiles" style="ellipse;whiteSpace=wrap;html=1;aspect=fixed;" parent="5PwMdv7MGkjJYyUV1_AV-1" vertex="1">
          <mxGeometry x="640" y="465" width="70" height="70" as="geometry" />
        </mxCell>
        <mxCell id="5PwMdv7MGkjJYyUV1_AV-59" value="clasificación" style="edgeLabel;html=1;align=center;verticalAlign=top;resizable=0;points=[];" parent="5PwMdv7MGkjJYyUV1_AV-1" connectable="0" vertex="1">
          <mxGeometry x="649.9961974145708" y="550.0000937070683" as="geometry" />
        </mxCell>
        <mxCell id="5PwMdv7MGkjJYyUV1_AV-60" value="estadísticas" style="edgeLabel;html=1;align=center;verticalAlign=top;resizable=0;points=[];" parent="5PwMdv7MGkjJYyUV1_AV-1" connectable="0" vertex="1">
          <mxGeometry x="689.9961974145708" y="380.00009370706834" as="geometry" />
        </mxCell>
        <mxCell id="8203JDkQFIH94tRZnooB-18" style="edgeStyle=orthogonalEdgeStyle;rounded=0;orthogonalLoop=1;jettySize=auto;html=1;exitX=1;exitY=0;exitDx=0;exitDy=0;entryX=0;entryY=0.5;entryDx=0;entryDy=0;curved=1;" parent="5PwMdv7MGkjJYyUV1_AV-1" source="5PwMdv7MGkjJYyUV1_AV-65" target="5PwMdv7MGkjJYyUV1_AV-56" edge="1">
          <mxGeometry relative="1" as="geometry" />
        </mxCell>
        <mxCell id="8203JDkQFIH94tRZnooB-19" value="sesion de&lt;div&gt;usuario&lt;/div&gt;" style="edgeLabel;html=1;align=center;verticalAlign=middle;resizable=0;points=[];" parent="8203JDkQFIH94tRZnooB-18" connectable="0" vertex="1">
          <mxGeometry x="-0.1668" y="6" relative="1" as="geometry">
            <mxPoint as="offset" />
          </mxGeometry>
        </mxCell>
        <mxCell id="8203JDkQFIH94tRZnooB-21" style="edgeStyle=orthogonalEdgeStyle;rounded=0;orthogonalLoop=1;jettySize=auto;html=1;exitX=1;exitY=1;exitDx=0;exitDy=0;entryX=0.25;entryY=0;entryDx=0;entryDy=0;curved=1;" parent="5PwMdv7MGkjJYyUV1_AV-1" source="5PwMdv7MGkjJYyUV1_AV-65" target="5PwMdv7MGkjJYyUV1_AV-49" edge="1">
          <mxGeometry relative="1" as="geometry" />
        </mxCell>
        <mxCell id="8203JDkQFIH94tRZnooB-22" value="datos&lt;div&gt;usuario&lt;/div&gt;" style="edgeLabel;html=1;align=center;verticalAlign=middle;resizable=0;points=[];" parent="8203JDkQFIH94tRZnooB-21" connectable="0" vertex="1">
          <mxGeometry x="-0.2244" y="-8" relative="1" as="geometry">
            <mxPoint x="-15" y="1" as="offset" />
          </mxGeometry>
        </mxCell>
        <mxCell id="8203JDkQFIH94tRZnooB-27" style="edgeStyle=orthogonalEdgeStyle;rounded=0;orthogonalLoop=1;jettySize=auto;html=1;exitX=1;exitY=0.5;exitDx=0;exitDy=0;entryX=0;entryY=1;entryDx=0;entryDy=0;curved=1;" parent="5PwMdv7MGkjJYyUV1_AV-1" source="5PwMdv7MGkjJYyUV1_AV-65" target="5PwMdv7MGkjJYyUV1_AV-67" edge="1">
          <mxGeometry relative="1" as="geometry">
            <Array as="points">
              <mxPoint x="520" y="360" />
              <mxPoint x="520" y="338" />
            </Array>
          </mxGeometry>
        </mxCell>
        <mxCell id="8203JDkQFIH94tRZnooB-41" value="resultados" style="edgeLabel;html=1;align=center;verticalAlign=middle;resizable=0;points=[];" parent="8203JDkQFIH94tRZnooB-27" connectable="0" vertex="1">
          <mxGeometry x="-0.2313" y="2" relative="1" as="geometry">
            <mxPoint as="offset" />
          </mxGeometry>
        </mxCell>
        <mxCell id="5PwMdv7MGkjJYyUV1_AV-65" value="Perfil de&lt;div&gt;Usuario&lt;/div&gt;" style="ellipse;whiteSpace=wrap;html=1;aspect=fixed;" parent="5PwMdv7MGkjJYyUV1_AV-1" vertex="1">
          <mxGeometry x="170" y="330" width="60" height="60" as="geometry" />
        </mxCell>
        <mxCell id="5PwMdv7MGkjJYyUV1_AV-66" value="sesión de&lt;div&gt;usuario&lt;/div&gt;" style="edgeLabel;html=1;align=center;verticalAlign=middle;resizable=0;points=[];" parent="5PwMdv7MGkjJYyUV1_AV-1" connectable="0" vertex="1">
          <mxGeometry x="425.00448275862095" y="409.9991471988259" as="geometry">
            <mxPoint x="-9" y="14" as="offset" />
          </mxGeometry>
        </mxCell>
        <mxCell id="jvBPAijivOhRB5HaXGN9-2" style="edgeStyle=orthogonalEdgeStyle;rounded=0;orthogonalLoop=1;jettySize=auto;html=1;exitX=0;exitY=0.5;exitDx=0;exitDy=0;entryX=0.75;entryY=0;entryDx=0;entryDy=0;curved=1;" edge="1" parent="5PwMdv7MGkjJYyUV1_AV-1" source="5PwMdv7MGkjJYyUV1_AV-67" target="5PwMdv7MGkjJYyUV1_AV-49">
          <mxGeometry relative="1" as="geometry" />
        </mxCell>
        <mxCell id="5PwMdv7MGkjJYyUV1_AV-67" value="Motor de Gamificación" style="ellipse;whiteSpace=wrap;html=1;aspect=fixed;" parent="5PwMdv7MGkjJYyUV1_AV-1" vertex="1">
          <mxGeometry x="540" y="270" width="80" height="80" as="geometry" />
        </mxCell>
        <mxCell id="5PwMdv7MGkjJYyUV1_AV-68" value="estadísticas" style="edgeLabel;html=1;align=center;verticalAlign=top;resizable=0;points=[];" parent="5PwMdv7MGkjJYyUV1_AV-1" connectable="0" vertex="1">
          <mxGeometry x="458.9961974145708" y="370.00009370706834" as="geometry" />
        </mxCell>
      </root>
    </mxGraphModel>
  </diagram>
</mxfile>
